<?xml version="1.0" encoding="UTF-8"?>
<svg id="Layer_1" xmlns="http://www.w3.org/2000/svg" version="1.1" viewBox="0 0 100 100">
  <!-- Generator: Adobe Illustrator 29.0.0, SVG Export Plug-In . SVG Version: 2.1.0 Build 186)  -->
  <defs>
    <style>
      .st0 {
        fill: #70a9ec;
      }

      .st1 {
        fill: #fff;
      }

      .st2 {
        fill: #ebc075;
      }

      .st3 {
        fill: #d27056;
      }
    </style>
  </defs>
  <g>
    <path class="st0" d="M39.6,39.7l11.7,20.3-11.7,20.3h-23.5l-11.7-20.3,11.7-20.3h23.5M40.5,38.3H15.3L2.7,60l12.6,21.8h25.1l12.6-21.8-12.6-21.8h0Z"/>
    <path class="st0" d="M76.2,18.8l11.7,20.3-11.7,20.3h-23.5l-11.7-20.3,11.7-20.3h23.5M77,17.3h-25.1l-12.6,21.8,12.6,21.8h25.1l12.6-21.8-12.6-21.8h0Z"/>
  </g>
  <g>
    <g>
      <line class="st1" x1="28.7" y1="60.9" x2="17" y2="83.5"/>
      <rect class="st0" x="10.1" y="71.4" width="25.5" height="1.7" transform="translate(-51.8 59.4) rotate(-62.7)"/>
    </g>
    <g>
      <line class="st1" x1="39.7" y1="83.5" x2="28.7" y2="60.9"/>
      <rect class="st0" x="33.4" y="59.6" width="1.7" height="25.2" transform="translate(-28 22.1) rotate(-25.8)"/>
    </g>
    <g>
      <line class="st1" x1="73.8" y1="60.8" x2="62.1" y2="83.5"/>
      <rect class="st0" x="55.2" y="71.3" width="25.5" height="1.7" transform="translate(-27.3 99.4) rotate(-62.7)"/>
    </g>
    <g>
      <line class="st1" x1="84.7" y1="83.5" x2="73.8" y2="60.8"/>
      <rect class="st0" x="78.4" y="59.6" width="1.7" height="25.2" transform="translate(-23.5 41.7) rotate(-25.8)"/>
    </g>
    <g>
      <line class="st1" x1="28.7" y1="37.1" x2="28.7" y2="60.9"/>
      <rect class="st0" x="27.9" y="37.1" width="1.7" height="23.8"/>
    </g>
    <g>
      <line class="st1" x1="73.5" y1="36.9" x2="73.5" y2="60.3"/>
      <rect class="st0" x="72.7" y="36.9" width="1.7" height="23.4"/>
    </g>
    <g>
      <line class="st1" x1="51.2" y1="16.5" x2="28.6" y2="36.9"/>
      <rect class="st0" x="24.6" y="25.9" width="30.5" height="1.7" transform="translate(-7.6 33.6) rotate(-42.1)"/>
    </g>
    <g>
      <line class="st1" x1="73.5" y1="36.9" x2="51.2" y2="16.5"/>
      <rect class="st0" x="61.5" y="11.6" width="1.7" height="30.3" transform="translate(.5 54.6) rotate(-47.4)"/>
    </g>
    <g>
      <g>
        <circle class="st3" cx="51.4" cy="16.6" r="6.5"/>
        <path class="st0" d="M51.4,23.7c-3.9,0-7.1-3.2-7.1-7.1s3.2-7.1,7.1-7.1,7.1,3.2,7.1,7.1-3.2,7.1-7.1,7.1ZM51.4,10.7c-3.2,0-5.9,2.6-5.9,5.9s2.6,5.9,5.9,5.9,5.9-2.6,5.9-5.9-2.6-5.9-5.9-5.9Z"/>
      </g>
      <g>
        <circle class="st3" cx="28.6" cy="60.7" r="6.9"/>
        <path class="st0" d="M28.6,68.2c-4.2,0-7.6-3.4-7.6-7.6s3.4-7.6,7.6-7.6,7.6,3.4,7.6,7.6-3.4,7.6-7.6,7.6ZM28.6,54.4c-3.5,0-6.3,2.8-6.3,6.3s2.8,6.3,6.3,6.3,6.3-2.8,6.3-6.3-2.8-6.3-6.3-6.3Z"/>
      </g>
      <g>
        <rect class="st2" x="66.9" y="30.6" width="13" height="13"/>
        <path class="st0" d="M80.5,44.2h-14.2v-14.2h14.2v14.2ZM67.6,43h11.7v-11.7h-11.7v11.7Z"/>
      </g>
      <g>
        <rect class="st2" x="55.7" y="77.1" width="13" height="13"/>
        <path class="st0" d="M69.3,90.7h-14.2v-14.2h14.2v14.2ZM56.3,89.5h11.7v-11.7h-11.7v11.7Z"/>
      </g>
      <g>
        <circle class="st3" cx="73.4" cy="60.3" r="6.5"/>
        <path class="st0" d="M73.4,67.4c-3.9,0-7.1-3.2-7.1-7.1s3.2-7.1,7.1-7.1,7.1,3.2,7.1,7.1-3.2,7.1-7.1,7.1ZM73.4,54.4c-3.2,0-5.9,2.6-5.9,5.9s2.6,5.9,5.9,5.9,5.9-2.6,5.9-5.9-2.6-5.9-5.9-5.9Z"/>
      </g>
      <g>
        <rect class="st2" x="78.4" y="77.1" width="13" height="13"/>
        <path class="st0" d="M92,90.7h-14.2v-14.2h14.2v14.2ZM79,89.5h11.7v-11.7h-11.7v11.7Z"/>
      </g>
      <g>
        <rect class="st2" x="10.5" y="77.1" width="13" height="13"/>
        <path class="st0" d="M24.1,90.7h-14.2v-14.2h14.2v14.2ZM11.1,89.5h11.7v-11.7h-11.7v11.7Z"/>
      </g>
      <g>
        <rect class="st2" x="33.2" y="77.1" width="13" height="13"/>
        <path class="st0" d="M46.8,90.7h-14.2v-14.2h14.2v14.2ZM33.8,89.5h11.7v-11.7h-11.7v11.7Z"/>
      </g>
      <g>
        <rect class="st2" x="22.1" y="30.6" width="13" height="13"/>
        <path class="st0" d="M35.8,44.2h-14.2v-14.2h14.2v14.2ZM22.8,43h11.7v-11.7h-11.7v11.7Z"/>
      </g>
    </g>
  </g>
</svg>